#define circlepoint_width 16
#define circlepoint_height 16
#define circlepoint_x_hot 8
#define circlepoint_y_hot 8
static unsigned char circlepoint_bits[] = {
0x00, 0x00, 
0x00, 0x00, 
0x00, 0x00, 
0xC0, 0x03, 
0x20, 0x04, 
0xD0, 0x0B, 
0xE8, 0x17, 
0xE8, 0x17, 
0xE8, 0x17, 
0xE8, 0x17, 
0xD0, 0x0B, 
0x20, 0x04, 
0xC0, 0x03, 
0x00, 0x00, 
0x00, 0x00, 
0x00, 0x00
};
