#define combobox_width 16
#define combobox_height 16
#define combobox_x_hot 8
#define combobox_y_hot 8
static unsigned char combobox_bits[] = {
0x00, 0x00, 
0x00, 0x00, 
0x00, 0x00, 
0x00, 0x00, 
0xF8, 0x3F, 
0xF0, 0x1F, 
0xE0, 0x0F, 
0xC0, 0x07, 
0x80, 0x03, 
0x00, 0x01, 
0xF8, 0x3F, 
0x00, 0x00, 
0x00, 0x00, 
0x00, 0x00, 
0x00, 0x00, 
0x00, 0x00
};
