#define spinboxdown_width 16
#define spinboxdown_height 8
#define spinboxdown_x_hot 8
#define spinboxdown_y_hot 4
static unsigned char spinboxdown_bits[] = {
0x00, 0x00, 
0x00, 0x00, 
0xF0, 0x07, 
0xE0, 0x03, 
0xC0, 0x01, 
0x80, 0x00, 
0x00, 0x00, 
0x00, 0x00
};
